# xmcd
#
# Track frame offsets:
#	150
#	19176
#	34766
#	54778
#	71858
#	91534
#	108620
#	123267
#	139478
#	155676
#	173421
#
# Disc length: 2521 seconds
#
# Revision: 5
# Processed by: cddbd v1.5.2PL0 Copyright (c) Steve Scherf et al.
# Submitted via: EasyCDDAExtractor 15.3.0.1
#
DISCID=8c09d70b
DTITLE=Fey - Faltan Lunas
DYEAR=2006
DGENRE=Latin
TTITLE0=Y Aqui Estoy
TTITLE1=Me Has Vuelto Loca
TTITLE2=Como Un Angel
TTITLE3=Faltan Lunas
TTITLE4=Tres Razones
TTITLE5=La Ultima Gota
TTITLE6=Solo Por Bailar
TTITLE7=Entre Dos
TTITLE8=Yo Decido
TTITLE9=Volar Otra Vez
TTITLE10=Si Tengo Miedo
EXTD=
EXTT0=
EXTT1=
EXTT2=
EXTT3=
EXTT4=
EXTT5=
EXTT6=
EXTT7=
EXTT8=
EXTT9=
EXTT10=
PLAYORDER=
